<svg width="24" height="24" viewBox="0 0 24 24" fill="none" xmlns="http://www.w3.org/2000/svg">
<path d="M22.5 19.125H21.375V13.5C21.6153 13.5844 21.8771 13.5848 22.1176 13.5011C22.3582 13.4174 22.5632 13.2546 22.6992 13.0393C22.8352 12.8239 22.894 12.5688 22.8662 12.3156C22.8384 12.0625 22.7255 11.8263 22.5459 11.6456L13.3256 2.42343C12.974 2.07192 12.4972 1.87445 12 1.87445C11.5028 1.87445 11.026 2.07192 10.6744 2.42343L1.45406 11.6437C1.27345 11.8242 1.15958 12.0607 1.13116 12.3144C1.10274 12.5681 1.16146 12.8239 1.29766 13.0398C1.43387 13.2558 1.63947 13.4189 1.88068 13.5026C2.12189 13.5862 2.38437 13.5853 2.625 13.5V19.125H1.5C1.20163 19.125 0.915483 19.2435 0.704505 19.4545C0.493526 19.6655 0.375 19.9516 0.375 20.25C0.375 20.5484 0.493526 20.8345 0.704505 21.0455C0.915483 21.2565 1.20163 21.375 1.5 21.375H22.5C22.7984 21.375 23.0845 21.2565 23.2955 21.0455C23.5065 20.8345 23.625 20.5484 23.625 20.25C23.625 19.9516 23.5065 19.6655 23.2955 19.4545C23.0845 19.2435 22.7984 19.125 22.5 19.125ZM4.875 11.4047L12 4.27968L19.125 11.4047V19.125H15.375V14.25C15.375 13.9516 15.2565 13.6655 15.0455 13.4545C14.8345 13.2435 14.5484 13.125 14.25 13.125H9.75C9.45163 13.125 9.16548 13.2435 8.9545 13.4545C8.74353 13.6655 8.625 13.9516 8.625 14.25V19.125H4.875V11.4047ZM13.125 19.125H10.875V15.375H13.125V19.125Z" fill="white"/>
</svg>
