<svg width="24" height="24" viewBox="0 0 24 24" fill="none" xmlns="http://www.w3.org/2000/svg">
<path d="M20.2498 9.37499H12.461L19.7867 7.44093C19.9302 7.40308 20.0648 7.33719 20.1828 7.24707C20.3007 7.15694 20.3997 7.04437 20.4739 6.91583C20.5482 6.78728 20.5963 6.64532 20.6154 6.49811C20.6345 6.35091 20.6243 6.20137 20.5854 6.05812L19.8204 3.24562C19.689 2.77184 19.3762 2.36892 18.9498 2.12413C18.5234 1.87935 18.0177 1.8124 17.5423 1.93781L3.26135 5.70656C3.02342 5.76855 2.80023 5.87733 2.60482 6.02654C2.40941 6.17576 2.24569 6.36242 2.12322 6.57562C2.00053 6.78599 1.92115 7.01877 1.88975 7.26027C1.85836 7.50178 1.87558 7.74712 1.94041 7.98187L2.62479 10.5V18.75C2.62479 19.2473 2.82233 19.7242 3.17396 20.0758C3.52559 20.4275 4.0025 20.625 4.49979 20.625H19.4998C19.9971 20.625 20.474 20.4275 20.8256 20.0758C21.1772 19.7242 21.3748 19.2473 21.3748 18.75V10.5C21.3748 10.2016 21.2563 9.91548 21.0453 9.7045C20.8343 9.49352 20.5482 9.37499 20.2498 9.37499ZM11.7082 5.80406L13.4229 6.79406L10.9901 7.43624L9.27541 6.44624L11.7082 5.80406ZM17.7504 4.21031L18.117 5.55562L16.511 5.97937L14.7963 4.98843L17.7504 4.21031ZM6.18729 7.26187L7.90197 8.24999L4.58322 9.12656L4.21854 7.78124L6.18729 7.26187ZM19.1248 18.375H4.87479V11.625H19.1248V18.375Z" fill="black"/>
</svg>
